<svg width="218" height="69" viewBox="0 0 218 69" fill="none" xmlns="http://www.w3.org/2000/svg">
<path d="M24.9172 18.32C24.4885 18.32 24.1075 18.5933 23.97 18.9993L17.5203 38.047C17.2061 38.9749 15.8833 38.9444 15.6122 38.003L10.1523 19.0433C10.0289 18.615 9.63704 18.32 9.19133 18.32H1.23279C0.555629 18.32 0.0742555 18.9789 0.280113 19.624L10.9459 53.048C11.0782 53.4626 11.4634 53.744 11.8986 53.744H20.1693C20.5987 53.744 20.9802 53.4698 21.1171 53.0628L28.0845 32.3457C28.3891 31.4399 29.669 31.4365 29.9784 32.3406L37.0726 53.0678C37.211 53.4723 37.5912 53.744 38.0187 53.744H46.1452C46.5824 53.744 46.9689 53.46 47.0995 53.0427L57.5615 19.6187C57.7631 18.9747 57.282 18.32 56.6072 18.32H49.2173C48.7713 18.32 48.3792 18.6154 48.2561 19.0441L42.8005 38.0491C42.5295 38.993 41.2023 39.0217 40.8909 38.0903L34.5083 19.0029C34.372 18.595 33.99 18.32 33.56 18.32H24.9172Z" fill="#15191C"/>
<path d="M71.0868 32C70.5083 32 70.0454 31.508 70.1743 30.9441C70.8472 27.9991 73.5033 25.016 77.9379 25.016C82.8717 25.016 85.23 27.8256 85.7518 30.9644C85.8449 31.525 85.3845 32 84.8162 32H71.0868ZM87.6967 41.4844C87.1896 41.3337 86.6583 41.6071 86.433 42.0858C85.1625 44.7849 82.7731 46.616 78.7299 46.616C74.3382 46.616 70.6229 43.7257 69.9143 39.5932C69.8179 39.031 70.2787 38.552 70.8491 38.552H94.1459C94.6982 38.552 95.1802 38.1059 95.2166 37.5548C95.253 37.003 95.2899 36.2923 95.2899 35.6C95.2899 24.224 88.7379 17.24 77.7939 17.24C68.7219 17.24 60.3699 24.584 60.3699 35.888C60.3699 47.84 68.9379 54.824 78.6579 54.824C86.9164 54.824 92.3929 50.2303 94.4739 44.5388C94.6632 44.0212 94.3584 43.4649 93.8301 43.3079L87.6967 41.4844Z" fill="#15191C"/>
<path d="M111.407 53.744C111.959 53.744 112.407 53.2963 112.407 52.744V27.32C112.407 26.7677 111.959 26.32 111.407 26.32H103.831C103.278 26.32 102.831 26.7677 102.831 27.32V52.744C102.831 53.2963 103.278 53.744 103.831 53.744H111.407ZM101.679 14.728C101.679 17.896 104.343 20.56 107.583 20.56C110.895 20.56 113.487 17.896 113.487 14.728C113.487 11.416 110.895 8.75201 107.583 8.75201C104.343 8.75201 101.679 11.416 101.679 14.728Z" fill="#15191C"/>
<path d="M131.235 53.744C131.787 53.744 132.235 53.2963 132.235 52.744V19.32C132.235 18.7677 131.787 18.32 131.235 18.32H123.659C123.107 18.32 122.659 18.7677 122.659 19.32V52.744C122.659 53.2963 123.107 53.744 123.659 53.744H131.235ZM121.507 6.72801C121.507 9.89602 124.171 12.56 127.411 12.56C130.723 12.56 133.315 9.89602 133.315 6.72801C133.315 3.41601 130.723 0.752014 127.411 0.752014C124.171 0.752014 121.507 3.41601 121.507 6.72801Z" fill="#15191C"/>
<path d="M140.83 55.4579C140.338 55.589 140.02 56.0693 140.129 56.5661C141.544 62.9704 147.878 68.504 157.175 68.504C170.495 68.504 175.751 59.648 175.751 49.928V19.32C175.751 18.7677 175.303 18.32 174.751 18.32H167.35C166.9 18.32 166.535 18.6848 166.535 19.1349V19.1349C166.535 19.9894 165.035 20.4917 164.354 19.9751C162.612 18.6527 160.01 17.672 156.455 17.672C146.735 17.672 139.967 25.592 139.967 34.952C139.967 44.888 147.023 52.16 156.455 52.16C160.09 52.16 162.814 51.0317 164.603 49.5515C165.179 49.0753 166.319 49.4692 166.319 50.216V50.216C166.319 57.056 162.935 60.08 156.887 60.08C152.779 60.08 149.853 57.7774 148.855 54.4553C148.686 53.8903 148.114 53.5155 147.544 53.6675L140.83 55.4579ZM158.111 43.952C153.143 43.952 149.615 40.496 149.615 34.952C149.615 29.48 153.359 26.024 158.111 26.024C162.719 26.024 166.463 29.48 166.463 34.952C166.463 40.424 163.007 43.952 158.111 43.952Z" fill="#15191C"/>
<path d="M195.024 32.936C195.24 29.048 197.616 26.024 201.648 26.024C206.256 26.024 208.2 29.12 208.2 33.08V52.744C208.2 53.2963 208.648 53.744 209.2 53.744H216.776C217.328 53.744 217.776 53.2963 217.776 52.744V31.424C217.776 23.648 213.6 17.384 204.6 17.384C202.085 17.384 199.291 18.0205 197.076 19.4709C196.296 19.9819 195.024 19.4648 195.024 18.532V2.61602C195.024 2.06373 194.576 1.61602 194.024 1.61602H186.448C185.896 1.61602 185.448 2.06373 185.448 2.61602V52.744C185.448 53.2963 185.896 53.744 186.448 53.744H194.024C194.576 53.744 195.024 53.2963 195.024 52.744V32.936Z" fill="#15191C"/>
</svg>
